<svg height="512" viewBox="0 0 60 60" width="512" xmlns="http://www.w3.org/2000/svg"><g id="Page-1" fill="none" fill-rule="evenodd"><g id="055---Ear-Sound" fill="rgb(0,0,0)" fill-rule="nonzero" transform="translate(-1 -1)"><path id="Shape" d="m60.971 20.87c-.6577643-10.6739467-9.1680201-19.18377363-19.842-19.841-5.757417-.30997801-11.3890294 1.76088836-15.5740639 5.72692199-4.1850345 3.96603361-6.5553124 9.47832251-6.5549361 15.24407801 0 .5522847.4477153 1 1 1s1-.4477153 1-1c-.0001835-5.2171497 2.1449249-10.2048386 5.9321448-13.79309949 3.78722-3.58826085 8.8833029-5.46135201 14.0928552-5.17990051 9.6561577.59376588 17.3547721 8.2928092 17.948 17.949.4154541 8.4212386-4.7323532 16.1212178-12.673 18.956-4.3206369 1.4704429-7.2454816 5.5043246-7.3 10.068 0 4.9705627-4.0294373 9-9 9s-9-4.0294373-9-9c0-.5522847-.4477153-1-1-1s-1 .4477153-1 1c0 6.0751322 4.9248678 11 11 11s11-4.9248678 11-11c.0533449-3.7143337 2.4409981-6.9921488 5.96-8.182 8.7773489-3.1307862 14.4688823-11.6402602 14.011-20.948z"/><path id="Shape" d="m52 22c0 .5522847.4477153 1 1 1s1-.4477153 1-1c-.0082673-7.7285595-6.2714405-13.99173268-14-14-4.085967-.00639099-7.9700403 1.77585895-10.629805 4.8776035-2.6597647 3.1017445-3.8287333 7.2122132-3.199195 11.2493965.2790792 1.8931212.9885987 3.697025 2.074 5.273.5527216.7717819 1.1627799 1.5008434 1.825 2.181.6396524.6494408 1.2230762 1.351958 1.744 2.1.5209185.759381.8850308 1.6150959 1.071 2.517.0872264.4739573.5000836.8182852.982.819.0610423.000589.1219968-.0047696.182-.016.5419287-.1011543.899771-.6218149.8-1.164-.2331246-1.1635342-.6969111-2.2685973-1.364-3.25-.5814513-.84424-1.2345311-1.6368353-1.952-2.369-.5912999-.6070496-1.1371082-1.2568056-1.633-1.944-.9144587-1.3270668-1.5118222-2.8464776-1.746-4.441-.5435617-3.460865.4556482-6.986193 2.7343554-9.6471212 2.2787072-2.6609283 5.608357-4.19056553 9.1116446-4.1858788 6.624447.0071648 11.9928352 5.375553 12 12z"/><path id="Shape" d="m41.067 17.227c-.1989542.5150021.0570942 1.0937968.572 1.293 2.261.88 3.361 2.805 3.361 5.902 0 .5522847.4477153 1 1 1s1-.4477153 1-1c0-4.937-2.523-6.949-4.639-7.768-.2475659-.095802-.5230647-.0892393-.7657882.0182418s-.4327522.3070601-.5282118.5547582z"/><path id="Shape" d="m34.737 16.457c-.4837529.1314649-.7954147.600792-.7289129 1.0976596.0665019.4968675.4906149.867717.9919129.8673404.0881438-.0003848.175869-.0121487.261-.035.6057075-.14855 1.2212853-.2534856 1.842-.314.5495233-.0568853.9488853-.5484767.892-1.098s-.5484767-.9488853-1.098-.892c-.728291.0708362-1.4502904.195849-2.16.374z"/><path id="Shape" d="m25.052 40.313c.1731886.5238394.7379135.8084393 1.262.636.055-.018 5.477-1.745 8.979 1.758.3923789.3789722 1.0160848.3735524 1.4018186-.0121814s.3911536-1.0094397.0121814-1.4018186c-4.387-4.387-10.754-2.331-11.023-2.241-.5217176.1748702-.8041405.7383754-.632 1.261z"/><path id="Shape" d="m11.5 16.258c-.4097953-.3703069-1.0421931-.3382953-1.4125.0715-.37030689.4097953-.33829526 1.0421931.0715 1.4125 4.9864295 4.41595 7.8410871 10.7572873 7.841 17.418.0007433 6.6602953-2.8523243 13.0016996-7.837 17.419-.37266613.3768815-.3865498.9790638-.0316489 1.3727199.354901.393656.9552974.4420335 1.3686489.1102801 5.3725747-4.8197385 8.4595592-11.6844656 8.5-18.902-.040316-7.2175616-3.1273222-14.0823368-8.5-18.902z"/><path id="Shape" d="m7.067 20.48c-.27152185-.2324013-.64640298-.3022937-.98342931-.1833495-.33702632.1189442-.58499552.4086545-.6505.76-.06550447.3513454.06140746.7109482.33292931.9433495 3.90126685 3.2649002 6.1789564 8.0731123 6.234 13.16-.0542377 5.0870735-2.33207885 9.8956057-6.234 13.16-.27152185.2322226-.39852908.5916604-.33317931.9429165.06534978.3512561.31312838.6409665.65.76.33687163.1190335.71165746.0493061.98317931-.1829165 4.3452034-3.6451666 6.8785778-9.0085839 6.934-14.68-.0551734-5.6712542-2.5881696-11.0346444-6.933-14.68z"/><path id="Shape" d="m1.282 24.784c-.18571856.1899891-.28819823.4460739-.28482118.711735s.11233318.5190582.30282118.704265c2.38740963 2.3680156 3.72099064 5.5974442 3.7 8.96.02175569 3.3632922-1.31190159 6.5936264-3.7 8.962-.39654045.3865993-.40459932 1.0214595-.018 1.418s1.02145955.4045993 1.418.018c2.77233344-2.7473718 4.32213238-6.4950019 4.3-10.398.02323661-3.9038011-1.5266909-7.652463-4.3-10.4-.19086365-.1855563-.44783299-.2873562-.71399043-.2828514s-.51953461.1149424-.70400957.3068514z"/></g></g></svg>